<svg version="1.0" xmlns="http://www.w3.org/2000/svg" viewBox="0 0 851 835"><path d="M831.1 404.6c0 1.1.3 1.4.6.6.3-.7.2-1.6-.1-1.9-.3-.4-.6.2-.5 1.3zM60.6 587.7c-.6 1.4-.5 1.5.5.6.7-.7 1-1.5.7-1.8-.3-.3-.9.2-1.2 1.2zM140 697.4c0 .2.8 1 1.8 1.7 1.5 1.3 1.6 1.2.3-.4s-2.1-2.1-2.1-1.3zm270.3 126.3c.9.2 2.3.2 3 0 .6-.3-.1-.5-1.8-.5-1.6 0-2.2.2-1.2.5zm23 0c.9.2 2.3.2 3 0 .6-.3-.1-.5-1.8-.5-1.6 0-2.2.2-1.2.5z" fill="#060"/><path d="M49.9 595.7c-1.3 1.6-1.2 1.7.4.4.9-.7 1.7-1.5 1.7-1.7 0-.8-.8-.3-2.1 1.3zM143 700.4c0 .2.8 1 1.8 1.7 1.5 1.3 1.6 1.2.3-.4s-2.1-2.1-2.1-1.3zm-35.7 11.3c.9.2 2.5.2 3.5 0 .9-.3.1-.5-1.8-.5-1.9 0-2.7.2-1.7.5zm308 112c.9.2 2.3.2 3 0 .6-.3-.1-.5-1.8-.5-1.6 0-2.2.2-1.2.5zm13.5 0c.6.2 1.8.2 2.5 0 .6-.3.1-.5-1.3-.5-1.4 0-1.9.2-1.2.5z" fill="#090"/><path d="M416.8 7.7c3.9.2 10.5.2 14.5 0 3.9-.1.7-.3-7.3-.3s-11.2.2-7.2.3zm-22.5 1c.9.2 2.3.2 3 0 .6-.3-.1-.5-1.8-.5-1.6 0-2.2.2-1.2.5zm58 0c.9.2 2.3.2 3 0 .6-.3-.1-.5-1.8-.5-1.6 0-2.2.2-1.2.5zm-70.5 1c.6.2 1.8.2 2.5 0 .6-.3.1-.5-1.3-.5-1.4 0-1.9.2-1.2.5zm-17 2c.7.3 1.6.2 1.9-.1.4-.3-.2-.6-1.3-.5-1.1 0-1.4.3-.6.6zm115 0c.7.3 1.6.2 1.9-.1.4-.3-.2-.6-1.3-.5-1.1 0-1.4.3-.6.6zm-63 4c3.9.2 10.5.2 14.5 0 3.9-.1.7-.3-7.3-.3s-11.2.2-7.2.3zm-21.5 1c1.5.2 3.7.2 5 0 1.2-.2 0-.4-2.8-.4-2.7 0-3.8.2-2.2.4zm53.5 0c1.2.2 3.2.2 4.5 0 1.2-.2.2-.4-2.3-.4s-3.5.2-2.2.4zm-66 1c1.2.2 3 .2 4 0 .9-.3-.1-.5-2.3-.4-2.2 0-3 .2-1.7.4zm79.5 0c.9.2 2.3.2 3 0 .6-.3-.1-.5-1.8-.5-1.6 0-2.2.2-1.2.5zm-88.5 1c.6.2 1.8.2 2.5 0 .6-.3.1-.5-1.3-.5-1.4 0-1.9.2-1.2.5zm96 0c.6.2 1.8.2 2.5 0 .6-.3.1-.5-1.3-.5-1.4 0-1.9.2-1.2.5zm-104 1c.6.2 1.8.2 2.5 0 .6-.3.1-.5-1.3-.5-1.4 0-1.9.2-1.2.5zm112 0c.6.2 1.8.2 2.5 0 .6-.3.1-.5-1.3-.5-1.4 0-1.9.2-1.2.5zm-118 1c.7.3 1.6.2 1.9-.1.4-.3-.2-.6-1.3-.5-1.1 0-1.4.3-.6.6zm125 0c.7.3 1.6.2 1.9-.1.4-.3-.2-.6-1.3-.5-1.1 0-1.4.3-.6.6zm-131 1c.7.3 1.6.2 1.9-.1.4-.3-.2-.6-1.3-.5-1.1 0-1.4.3-.6.6zm137 0c.6.2 1.8.2 2.5 0 .6-.3.1-.5-1.3-.5-1.4 0-1.9.2-1.2.5zm-143 1c.7.3 1.6.2 1.9-.1.4-.3-.2-.6-1.3-.5-1.1 0-1.4.3-.6.6zm150 0c.7.3 1.6.2 1.9-.1.4-.3-.2-.6-1.3-.5-1.1 0-1.4.3-.6.6zm-155 1c.7.3 1.6.2 1.9-.1.4-.3-.2-.6-1.3-.5-1.1 0-1.4.3-.6.6zm160 0c.7.3 1.6.2 1.9-.1.4-.3-.2-.6-1.3-.5-1.1 0-1.4.3-.6.6zm-169 2c.7.3 1.6.2 1.9-.1.4-.3-.2-.6-1.3-.5-1.1 0-1.4.3-.6.6zm178 0c.7.3 1.6.2 1.9-.1.4-.3-.2-.6-1.3-.5-1.1 0-1.4.3-.6.6zM600 56.4c0 .3.9 1 2 1.6 1.1.6 2 .8 2 .6 0-.3-.9-1-2-1.6-1.1-.6-2-.8-2-.6zM171.8 70.7c.7.3 1.6.2 1.9-.1.4-.3-.2-.6-1.3-.5-1.1 0-1.4.3-.6.6zm-45.8 18-6.5 6.8 6.8-6.5c3.7-3.5 6.7-6.6 6.7-6.7 0-.8-1 .2-7 6.4zm35.8-6c1.7.2 4.7.2 6.5 0 1.7-.2.3-.4-3.3-.4-3.6 0-5 .2-3.2.4zm-8 1c.7.3 1.6.2 1.9-.1.4-.3-.2-.6-1.3-.5-1.1 0-1.4.3-.6.6zm21 0c.7.3 1.6.2 1.9-.1.4-.3-.2-.6-1.3-.5-1.1 0-1.4.3-.6.6zM663 95.4c0 .2.8 1 1.8 1.7 1.5 1.3 1.6 1.2.3-.4s-2.1-2.1-2.1-1.3zm-497.1 3.3c-1.3 1.6-1.2 1.7.4.4.9-.7 1.7-1.5 1.7-1.7 0-.8-.8-.3-2.1 1.3zm514.1-.3c0 .2.8 1 1.8 1.7 1.5 1.3 1.6 1.2.3-.4s-2.1-2.1-2.1-1.3zm-520.1 5.3c-1.3 1.6-1.2 1.7.4.4 1.6-1.3 2.1-2.1 1.3-2.1-.2 0-1 .8-1.7 1.7zm512.1-1.3c0 .2.8 1 1.8 1.7 1.5 1.3 1.6 1.2.3-.4s-2.1-2.1-2.1-1.3zm-500.1 2.3c-1.3 1.6-1.2 1.7.4.4.9-.7 1.7-1.5 1.7-1.7 0-.8-.8-.3-2.1 1.3zm516.1.8c1.3 1.4 2.6 2.5 2.8 2.5.3 0-.5-1.1-1.8-2.5s-2.6-2.5-2.8-2.5c-.3 0 .5 1.1 1.8 2.5zm-535.1 4.2-2.4 2.8 2.8-2.4c2.5-2.3 3.2-3.1 2.4-3.1-.2 0-1.4 1.2-2.8 2.7zm14-1c-1.3 1.6-1.2 1.7.4.4.9-.7 1.7-1.5 1.7-1.7 0-.8-.8-.3-2.1 1.3zm512.6.3c1 1.1 2 2 2.3 2 .3 0-.3-.9-1.3-2s-2-2-2.3-2c-.3 0 .3.9 1.3 2zm14.5 1.3c0 .2 1.5 1.6 3.3 3.3l3.2 2.9-2.9-3.3c-2.8-3-3.6-3.7-3.6-2.9zm-569.9 3.3c0 1.1.3 1.4.6.6.3-.7.2-1.6-.1-1.9-.3-.4-.6.2-.5 1.3zm561.9.9c1.3 1.4 2.6 2.5 2.8 2.5.3 0-.5-1.1-1.8-2.5s-2.6-2.5-2.8-2.5c-.3 0 .5 1.1 1.8 2.5zm-527.1 1.2-2.4 2.8 2.8-2.4c2.5-2.3 3.2-3.1 2.4-3.1-.2 0-1.4 1.2-2.8 2.7zm570.9 0c.7.3 1.6.2 1.9-.1.4-.3-.2-.6-1.3-.5-1.1 0-1.4.3-.6.6zm15 0c.7.3 1.6.2 1.9-.1.4-.3-.2-.6-1.3-.5-1.1 0-1.4.3-.6.6zm-609.9 10.8c-4.7 4.7-8.3 8.5-8 8.5.4 0 4.4-3.8 9.1-8.5 4.7-4.7 8.2-8.5 8-8.5-.3 0-4.4 3.8-9.1 8.5zm622.1-7.1c0 .2.7.7 1.6 1 .8.3 1.2.2.9-.4-.6-1-2.5-1.4-2.5-.6zm-60.5 4.6c2.1 2.2 4.1 4 4.4 4 .3 0-1.3-1.8-3.4-4-2.1-2.2-4.1-4-4.4-4-.3 0 1.3 1.8 3.4 4zM141 132.7l-10.5 10.8 10.8-10.5c9.9-9.7 11.2-11 10.4-11-.1 0-5 4.8-10.7 10.7zm565.4-4.5-2.9 3.3 3.3-2.9c3-2.8 3.7-3.6 2.9-3.6-.2 0-1.6 1.5-3.3 3.2zm-582.3-.6c0 1.1.3 1.4.6.6.3-.7.2-1.6-.1-1.9-.3-.4-.6.2-.5 1.3zm654.9-1.2c0 .2.8 1 1.8 1.7 1.5 1.3 1.6 1.2.3-.4s-2.1-2.1-2.1-1.3zm-9 3c0 .2.8 1 1.8 1.7 1.5 1.3 1.6 1.2.3-.4s-2.1-2.1-2.1-1.3zm-663.8 3.1c0 1.6.2 2.2.5 1.2.2-.9.2-2.3 0-3-.3-.6-.5.1-.5 1.8zm8.8-.9c0 .8.5 1.2 1 .9.6-.4.8-1.1.5-1.6-.9-1.4-1.5-1.1-1.5.7zm627.3 1.1c.9.2 2.3.2 3 0 .6-.3-.1-.5-1.8-.5-1.6 0-2.2.2-1.2.5zm-27.9 3.5-1.9 2.3 2.3-1.9c2.1-1.8 2.7-2.6 1.9-2.6-.2 0-1.2 1-2.3 2.2zm55.6-.8c0 .2.8 1 1.8 1.7 1.5 1.3 1.6 1.2.3-.4s-2.1-2.1-2.1-1.3zM115.2 138c0 1.4.2 1.9.5 1.2.2-.6.2-1.8 0-2.5-.3-.6-.5-.1-.5 1.3zm645.8.4c0 .2.8 1 1.8 1.7 1.5 1.3 1.6 1.2.3-.4s-2.1-2.1-2.1-1.3zm-47 3.1c1.3 1.4 2.6 2.5 2.8 2.5.3 0-.5-1.1-1.8-2.5s-2.6-2.5-2.8-2.5c-.3 0 .5 1.1 1.8 2.5zm13 2c1.3 1.4 2.6 2.5 2.8 2.5.3 0-.5-1.1-1.8-2.5s-2.6-2.5-2.8-2.5c-.3 0 .5 1.1 1.8 2.5zm39.5.5c1 1.1 2 2 2.3 2 .3 0-.3-.9-1.3-2s-2-2-2.3-2c-.3 0 .3.9 1.3 2zm12.3 4.9c.3.9.8 2 1.2 2.6.5.5 1 1.9 1.3 3 .4 1.6.5 1.4.6-.7 0-1.5-.4-3-1-3.3-.6-.4-.8-1.3-.6-1.9.3-.7-.1-1.3-.8-1.3-.8 0-1.1.7-.7 1.6zm-56.8 1.6c1.3 1.4 2.6 2.5 2.8 2.5.3 0-.5-1.1-1.8-2.5s-2.6-2.5-2.8-2.5c-.3 0 .5 1.1 1.8 2.5zm68.2.5c0 1.4.2 1.9.5 1.2.2-.6.2-1.8 0-2.5-.3-.6-.5-.1-.5 1.3zm-57.2-.6c0 .2.8 1 1.8 1.7 1.5 1.3 1.6 1.2.3-.4s-2.1-2.1-2.1-1.3zm5.5 6.6c1 1.1 2 2 2.3 2 .3 0-.3-.9-1.3-2s-2-2-2.3-2c-.3 0 .3.9 1.3 2zm-620.6.7c-1.3 1.6-1.2 1.7.4.4 1.6-1.3 2.1-2.1 1.3-2.1-.2 0-1 .8-1.7 1.7zm610.1-.3c0 .2.8 1 1.8 1.7 1.5 1.3 1.6 1.2.3-.4s-2.1-2.1-2.1-1.3zm63.2 2.1c0 1.6.2 2.2.5 1.2.2-.9.2-2.3 0-3-.3-.6-.5.1-.5 1.8zm-49.2 1.9c0 .2.8 1 1.8 1.7 1.5 1.3 1.6 1.2.3-.4s-2.1-2.1-2.1-1.3zm-9 2c0 .2.8 1 1.8 1.7 1.5 1.3 1.6 1.2.3-.4s-2.1-2.1-2.1-1.3zm12 2c0 .2.8 1 1.8 1.7 1.5 1.3 1.6 1.2.3-.4s-2.1-2.1-2.1-1.3zm45.1 3.2c0 1.1.3 1.4.6.6.3-.7.2-1.6-.1-1.9-.3-.4-.6.2-.5 1.3zm-53.1-.2c0 .2.8 1 1.8 1.7 1.5 1.3 1.6 1.2.3-.4s-2.1-2.1-2.1-1.3zm27.1 17.6c-1.3 1.1-1.9 2-1.4 2 .6 0 1.8-.9 2.8-2 2.3-2.5 1.7-2.5-1.4 0zm14.8 6.7c-1.3 1.6-1.2 1.7.4.4 1.6-1.3 2.1-2.1 1.3-2.1-.2 0-1 .8-1.7 1.7zm14.1 50.8c0 .5.5 1.7 1 2.5s1 1 1 .5c0-.6-.5-1.7-1-2.5s-1-1.1-1-.5zm-628.2 5.2c.6.2 1.8.2 2.5 0 .6-.3.1-.5-1.3-.5-1.4 0-1.9.2-1.2.5zm5 0c.6.2 1.8.2 2.5 0 .6-.3.1-.5-1.3-.5-1.4 0-1.9.2-1.2.5zm-19.9 7c-1.3 1.6-1.2 1.7.4.4.9-.7 1.7-1.5 1.7-1.7 0-.8-.8-.3-2.1 1.3zm43.3 14.3c0 1.4.2 1.9.5 1.2.2-.6.2-1.8 0-2.5-.3-.6-.5-.1-.5 1.3zm-.1 8.6c0 1.1.3 1.4.6.6.3-.7.2-1.6-.1-1.9-.3-.4-.6.2-.5 1.3zm-7.7 13.6-2.9 3.3 3.3-2.9c1.7-1.7 3.2-3.1 3.2-3.3 0-.8-.8-.1-3.6 2.9zm-29.7 3.9c.7.7 1.5 1 1.8.7.3-.3-.2-.9-1.2-1.2-1.4-.6-1.5-.5-.6.5zm6.1 2.6c.7.3 1.6.2 1.9-.1.4-.3-.2-.6-1.3-.5-1.1 0-1.4.3-.6.6zm659.3 27.9c0 1.1.3 1.4.6.6.3-.7.2-1.6-.1-1.9-.3-.4-.6.2-.5 1.3zm-788 2c0 1.1.3 1.4.6.6.3-.7.2-1.6-.1-1.9-.3-.4-.6.2-.5 1.3zm-1 5c0 1.1.3 1.4.6.6.3-.7.2-1.6-.1-1.9-.3-.4-.6.2-.5 1.3zm792 8c0 1.1.3 1.4.6.6.3-.7.2-1.6-.1-1.9-.3-.4-.6.2-.5 1.3zm1.1 5.4c0 1.4.2 1.9.5 1.2.2-.6.2-1.8 0-2.5-.3-.6-.5-.1-.5 1.3zm-796.1 1.6c0 1.1.3 1.4.6.6.3-.7.2-1.6-.1-1.9-.3-.4-.6.2-.5 1.3zm797.1 4.4c0 1.4.2 1.9.5 1.2.2-.6.2-1.8 0-2.5-.3-.6-.5-.1-.5 1.3zm-798 2c0 1.4.2 1.9.5 1.2.2-.6.2-1.8 0-2.5-.3-.6-.5-.1-.5 1.3zm-9.1 2.6c0 1.1.3 1.4.6.6.3-.7.2-1.6-.1-1.9-.3-.4-.6.2-.5 1.3zm808.1 2.4c0 1.4.2 1.9.5 1.2.2-.6.2-1.8 0-2.5-.3-.6-.5-.1-.5 1.3zm-8.1.6c0 1.1.3 1.4.6.6.3-.7.2-1.6-.1-1.9-.3-.4-.6.2-.5 1.3zm-792 1c0 1.1.3 1.4.6.6.3-.7.2-1.6-.1-1.9-.3-.4-.6.2-.5 1.3zm-9 3c0 1.1.3 1.4.6.6.3-.7.2-1.6-.1-1.9-.3-.4-.6.2-.5 1.3zm810.1 3.4c0 1.4.2 1.9.5 1.2.2-.6.2-1.8 0-2.5-.3-.6-.5-.1-.5 1.3zm-802 2c0 1.4.2 1.9.5 1.2.2-.6.2-1.8 0-2.5-.3-.6-.5-.1-.5 1.3zm-9.1 3.6c0 1.1.3 1.4.6.6.3-.7.2-1.6-.1-1.9-.3-.4-.6.2-.5 1.3zm812.2 3.9c0 2.2.2 3 .4 1.7.2-1.2.2-3 0-4-.3-.9-.5.1-.4 2.3zm-804.1 2c0 1.6.2 2.2.5 1.2.2-.9.2-2.3 0-3-.3-.6-.5.1-.5 1.8zm795.9-.9c0 1.1.3 1.4.6.6.3-.7.2-1.6-.1-1.9-.3-.4-.6.2-.5 1.3zm-804.9 5.9c0 1.6.2 2.2.5 1.2.2-.9.2-2.3 0-3-.3-.6-.5.1-.5 1.8zm814.1 6.5c0 3 .2 4.3.4 2.7.2-1.5.2-3.9 0-5.5-.2-1.5-.4-.2-.4 2.8zm-806 2c0 2.5.2 3.5.4 2.2.2-1.2.2-3.2 0-4.5-.2-1.2-.4-.2-.4 2.3zm797.9-1.5c0 1.6.2 2.2.5 1.2.2-.9.2-2.3 0-3-.3-.6-.5.1-.5 1.8zm-806.8 20c0 7.7.2 10.7.3 6.7.2-4 .2-10.3 0-14-.2-3.7-.3-.4-.3 7.3zm816 6c0 5.5.1 7.6.3 4.7.2-2.9.2-7.4 0-10-.2-2.6-.3-.2-.3 5.3zm-807.1 19c0 3.3.2 4.5.4 2.7.2-1.8.2-4.5 0-6s-.4 0-.4 3.3zm797.9 4c0 1.6.2 2.2.5 1.2.2-.9.2-2.3 0-3-.3-.6-.5.1-.5 1.8zm8.1 2c0 2.7.2 3.8.4 2.2.2-1.5.2-3.7 0-5-.2-1.2-.4 0-.4 2.8zm-814.1 1c0 1.6.2 2.2.5 1.2.2-.9.2-2.3 0-3-.3-.6-.5.1-.5 1.8zm9 8c0 1.6.2 2.2.5 1.2.2-.9.2-2.3 0-3-.3-.6-.5.1-.5 1.8zm795.9 2.1c0 1.1.3 1.4.6.6.3-.7.2-1.6-.1-1.9-.3-.4-.6.2-.5 1.3zm8.1 1.4c0 1.9.2 2.7.5 1.7.2-.9.2-2.5 0-3.5-.3-.9-.5-.1-.5 1.8zm-812.1.6c0 1.1.3 1.4.6.6.3-.7.2-1.6-.1-1.9-.3-.4-.6.2-.5 1.3zm9.2 6.9c0 2.2.2 3 .4 1.7.2-1.2.2-3 0-4-.3-.9-.5.1-.4 2.3zm793.8.1c0 1.1.3 1.4.6.6.3-.7.2-1.6-.1-1.9-.3-.4-.6.2-.5 1.3zm8.1.9c0 1.6.2 2.2.5 1.2.2-.9.2-2.3 0-3-.3-.6-.5.1-.5 1.8zm-801 8.5c0 1.4.2 1.9.5 1.2.2-.6.2-1.8 0-2.5-.3-.6-.5-.1-.5 1.3zm800 0c0 1.4.2 1.9.5 1.2.2-.6.2-1.8 0-2.5-.3-.6-.5-.1-.5 1.3zm-808.1.6c0 1.1.3 1.4.6.6.3-.7.2-1.6-.1-1.9-.3-.4-.6.2-.5 1.3zm9 6c0 1.1.3 1.4.6.6.3-.7.2-1.6-.1-1.9-.3-.4-.6.2-.5 1.3zm798 0c0 1.1.3 1.4.6.6.3-.7.2-1.6-.1-1.9-.3-.4-.6.2-.5 1.3zm-797 6c0 1.1.3 1.4.6.6.3-.7.2-1.6-.1-1.9-.3-.4-.6.2-.5 1.3zm796 0c0 1.1.3 1.4.6.6.3-.7.2-1.6-.1-1.9-.3-.4-.6.2-.5 1.3zm-795 6c0 1.1.3 1.4.6.6.3-.7.2-1.6-.1-1.9-.3-.4-.6.2-.5 1.3zm1 5c0 1.1.3 1.4.6.6.3-.7.2-1.6-.1-1.9-.3-.4-.6.2-.5 1.3zm792 0c0 1.1.3 1.4.6.6.3-.7.2-1.6-.1-1.9-.3-.4-.6.2-.5 1.3zm-180.8 3.1c.9.2 2.5.2 3.5 0 .9-.3.1-.5-1.8-.5-1.9 0-2.7.2-1.7.5zm11.7 3.7c0 .2.8 1 1.8 1.7 1.5 1.3 1.6 1.2.3-.4s-2.1-2.1-2.1-1.3zm-620.9 2.2c0 1.1.3 1.4.6.6.3-.7.2-1.6-.1-1.9-.3-.4-.6.2-.5 1.3zm788 0c0 1.1.3 1.4.6.6.3-.7.2-1.6-.1-1.9-.3-.4-.6.2-.5 1.3zm-194 10c0 1.1.3 1.4.6.6.3-.7.2-1.6-.1-1.9-.3-.4-.6.2-.5 1.3zm4.4 11.4c1 1.1 2 2 2.3 2 .3 0-.3-.9-1.3-2s-2-2-2.3-2c-.3 0 .3.9 1.3 2zM59.9 586.7c-1.3 1.6-1.2 1.7.4.4.9-.7 1.7-1.5 1.7-1.7 0-.8-.8-.3-2.1 1.3zm-15.5 2.5-2.9 3.3 3.3-2.9c1.7-1.7 3.2-3.1 3.2-3.3 0-.8-.8-.1-3.6 2.9zm9.5 2.5-2.4 2.8 2.8-2.4c2.5-2.3 3.2-3.1 2.4-3.1-.2 0-1.4 1.2-2.8 2.7zm-7.5 7.5-1.9 2.3 2.3-1.9c2.1-1.8 2.7-2.6 1.9-2.6-.2 0-1.2 1-2.3 2.2zm11.5 4.5c-1.3 1.6-1.2 1.7.3.5.9-.8 2.3-1 2.9-.6.8.4.9.3.5-.4-1-1.7-2.1-1.5-3.7.5zm207.4 10c1.5.2 3.7.2 5 0 1.2-.2 0-.4-2.8-.4-2.7 0-3.8.2-2.2.4zm259 2c1.5.2 3.7.2 5 0 1.2-.2 0-.4-2.8-.4-2.7 0-3.8.2-2.2.4zm-283.9 3.5-1.9 2.3 2.3-1.9c2.1-1.8 2.7-2.6 1.9-2.6-.2 0-1.2 1-2.3 2.2zm364.4 3.5c.7.3 1.6.2 1.9-.1.4-.3-.2-.6-1.3-.5-1.1 0-1.4.3-.6.6zm-257 5c.7.3 1.6.2 1.9-.1.4-.3-.2-.6-1.3-.5-1.1 0-1.4.3-.6.6zm255.1 1c-1.3 1.6-1.2 1.7.4.4 1.6-1.3 2.1-2.1 1.3-2.1-.2 0-1 .8-1.7 1.7zm-573.8 4.9c0 1.1.3 1.4.6.6.3-.7.2-1.6-.1-1.9-.3-.4-.6.2-.5 1.3zm462.1 3.9c0 1.6.2 2.2.5 1.2.2-.9.2-2.3 0-3-.3-.6-.5.1-.5 1.8zm4 .5c0 1.9.2 2.7.5 1.7.2-.9.2-2.5 0-3.5-.3-.9-.5-.1-.5 1.8zm-475.1-.4c0 1.1.3 1.4.6.6.3-.7.2-1.6-.1-1.9-.3-.4-.6.2-.5 1.3zm16.1.9c0 1.6.2 2.2.5 1.2.2-.9.2-2.3 0-3-.3-.6-.5.1-.5 1.8zm-8 .5c0 1.4.2 1.9.5 1.2.2-.6.2-1.8 0-2.5-.3-.6-.5-.1-.5 1.3zm16.1 5.5c0 4.4.2 6.1.4 3.7.2-2.3.2-5.9 0-8-.2-2-.4-.1-.4 4.3zm-17 6c0 3.3.2 4.5.4 2.7.2-1.8.2-4.5 0-6s-.4 0-.4 3.3zm-8 .5c0 2.5.2 3.5.4 2.2.2-1.2.2-3.2 0-4.5-.2-1.2-.4-.2-.4 2.3zm16.9-1.5c0 1.6.2 2.2.5 1.2.2-.9.2-2.3 0-3-.3-.6-.5.1-.5 1.8zm292.9 1.1c0 1.1.3 1.4.6.6.3-.7.2-1.6-.1-1.9-.3-.4-.6.2-.5 1.3zm-55.2 1.1c-1.3 1.6-1.2 1.7.4.4 1.6-1.3 2.1-2.1 1.3-2.1-.2 0-1 .8-1.7 1.7zm59.3.8c0 1.6.2 2.2.5 1.2.2-.9.2-2.3 0-3-.3-.6-.5.1-.5 1.8zm420.7 1.2c-1.3 1.6-1.2 1.7.4.4 1.6-1.3 2.1-2.1 1.3-2.1-.2 0-1 .8-1.7 1.7zm-708.8 2.9c0 1.1.3 1.4.6.6.3-.7.2-1.6-.1-1.9-.3-.4-.6.2-.5 1.3zm320 2c0 1.1.3 1.4.6.6.3-.7.2-1.6-.1-1.9-.3-.4-.6.2-.5 1.3zm-259.1.8c0 .2.8 1 1.8 1.7 1.5 1.3 1.6 1.2.3-.4s-2.1-2.1-2.1-1.3zM28.2 662c0 1.4.2 1.9.5 1.2.2-.6.2-1.8 0-2.5-.3-.6-.5-.1-.5 1.3zm69.8.4c0 .2.8 1 1.8 1.7 1.5 1.3 1.6 1.2.3-.4s-2.1-2.1-2.1-1.3zm11 1c0 .2.8 1 1.8 1.7 1.5 1.3 1.6 1.2.3-.4s-2.1-2.1-2.1-1.3zm-79.9 4.2c0 1.1.3 1.4.6.6.3-.7.2-1.6-.1-1.9-.3-.4-.6.2-.5 1.3zm85.4 2.4c1 1.1 2 2 2.3 2 .3 0-.3-.9-1.3-2s-2-2-2.3-2c-.3 0 .3.9 1.3 2zm213.8 2.5c0 2.7.2 3.8.4 2.2.2-1.5.2-3.7 0-5-.2-1.2-.4 0-.4 2.8zm412.6-1.8c-1.3 1.6-1.2 1.7.4.4 1.6-1.3 2.1-2.1 1.3-2.1-.2 0-1 .8-1.7 1.7zM106 672.4c0 .2.8 1 1.8 1.7 1.5 1.3 1.6 1.2.3-.4s-2.1-2.1-2.1-1.3zm630.9 3.3c-1.3 1.6-1.2 1.7.4.4 1.6-1.3 2.1-2.1 1.3-2.1-.2 0-1 .8-1.7 1.7zM120.5 677c1 1.1 2 2 2.3 2 .3 0-.3-.9-1.3-2s-2-2-2.3-2c-.3 0 .3.9 1.3 2zm-9.5 1.4c0 .2.8 1 1.8 1.7 1.5 1.3 1.6 1.2.3-.4s-2.1-2.1-2.1-1.3zm221.2 1.6c0 1.4.2 1.9.5 1.2.2-.6.2-1.8 0-2.5-.3-.6-.5-.1-.5 1.3zm390.2.2-1.9 2.3 2.3-1.9c2.1-1.8 2.7-2.6 1.9-2.6-.2 0-1.2 1-2.3 2.2zm-366.3 1.4c0 1.1.3 1.4.6.6.3-.7.2-1.6-.1-1.9-.3-.4-.6.2-.5 1.3zm374.8 1.1-2.4 2.8 2.8-2.4c1.5-1.4 2.7-2.6 2.7-2.8 0-.8-.8-.1-3.1 2.4zm-370.7.3c0 1.4.2 1.9.5 1.2.2-.6.2-1.8 0-2.5-.3-.6-.5-.1-.5 1.3zm-304.2.4c0 .2.8 1 1.8 1.7 1.5 1.3 1.6 1.2.3-.4s-2.1-2.1-2.1-1.3zm73 3.1c1.9 1.9 3.6 3.5 3.9 3.5.3 0-1-1.6-2.9-3.5s-3.6-3.5-3.9-3.5c-.3 0 1 1.6 2.9 3.5zm-11 0c1.3 1.4 2.6 2.5 2.8 2.5.3 0-.5-1.1-1.8-2.5s-2.6-2.5-2.8-2.5c-.3 0 .5 1.1 1.8 2.5zm355.2-.5c0 1.4.2 1.9.5 1.2.2-.6.2-1.8 0-2.5-.3-.6-.5-.1-.5 1.3zM63 691.2c4.1 4.5 5 5.3 5 4.5 0-.2-2.1-2.3-4.7-4.7l-4.8-4.5 4.5 4.7zm359.1-1.6c0 1.1.3 1.4.6.6.3-.7.2-1.6-.1-1.9-.3-.4-.6.2-.5 1.3zm283.4 8.6-9 9.3 9.3-9c8.5-8.3 9.7-9.5 8.9-9.5-.1 0-4.3 4.2-9.2 9.2zm15.5-4.7c-2.4 2.5-4.2 4.5-3.9 4.5.3 0 2.5-2 4.9-4.5 2.4-2.5 4.2-4.5 3.9-4.5-.3 0-2.5 2-4.9 4.5zm-190.1-1.8c-1.3 1.6-1.2 1.7.4.4 1.6-1.3 2.1-2.1 1.3-2.1-.2 0-1 .8-1.7 1.7zM52 691.4c0 .2.8 1 1.8 1.7 1.5 1.3 1.6 1.2.3-.4s-2.1-2.1-2.1-1.3zm78 8.1c3.6 3.9 6.7 6.9 7 6.7.2-.1-2.7-3.3-6.5-7l-6.9-6.7 6.4 7zm390.4-4.3-1.9 2.3 2.3-1.9c2.1-1.8 2.7-2.6 1.9-2.6-.2 0-1.2 1-2.3 2.2zM355.2 697c0 1.9.2 2.7.5 1.7.2-.9.2-2.5 0-3.5-.3-.9-.5-.1-.5 1.8zm4 .5c0 1.6.2 2.2.5 1.2.2-.9.2-2.3 0-3-.3-.6-.5.1-.5 1.8zm39.9-.9c0 1.1.3 1.4.6.6.3-.7.2-1.6-.1-1.9-.3-.4-.6.2-.5 1.3zm51.2 2.4c0 2.5.2 3.5.4 2.2.2-1.2.2-3.2 0-4.5-.2-1.2-.4-.2-.4 2.3zm21.8-2.4c0 1.1.3 1.4.6.6.3-.7.2-1.6-.1-1.9-.3-.4-.6.2-.5 1.3zm-76.9 1.4c0 1.4.2 1.9.5 1.2.2-.6.2-1.8 0-2.5-.3-.6-.5-.1-.5 1.3zm-332.7 4c1 1.1 2 2 2.3 2 .3 0-.3-.9-1.3-2s-2-2-2.3-2c-.3 0 .3.9 1.3 2zm383 0c.3.5.8 1 1.1 1 .2 0 .4-.5.4-1 0-.6-.5-1-1.1-1-.5 0-.7.4-.4 1zM50 706.2c2.4 2.7 4.5 4.8 4.7 4.8.8 0 0-.9-4.4-5l-4.8-4.5 4.5 4.7zm268.9-2.5c-1.3 1.6-1.2 1.7.4.4.9-.7 1.7-1.5 1.7-1.7 0-.8-.8-.3-2.1 1.3zM148 705.5c1.3 1.4 2.6 2.5 2.8 2.5.3 0-.5-1.1-1.8-2.5s-2.6-2.5-2.8-2.5c-.3 0 .5 1.1 1.8 2.5zm366.7.3c-2.9 3.1-3.3 4.2-1.5 4.2.6 0 .8-.3.5-.7-.4-.4.5-1.9 2-3.5 1.5-1.5 2.4-2.8 2.2-2.8-.3 0-1.7 1.3-3.2 2.8zm-139.8-.1c-1.3 1.6-1.2 1.7.4.4 1.6-1.3 2.1-2.1 1.3-2.1-.2 0-1 .8-1.7 1.7zM39.5 707c1 1.1 2 2 2.3 2 .3 0-.3-.9-1.3-2s-2-2-2.3-2c-.3 0 .3.9 1.3 2zm506.3-1.3c.7.3 1.6.2 1.9-.1.4-.3-.2-.6-1.3-.5-1.1 0-1.4.3-.6.6zm36 0c.7.3 1.6.2 1.9-.1.4-.3-.2-.6-1.3-.5-1.1 0-1.4.3-.6.6zM471.2 709c0 1.9.2 2.7.5 1.7.2-.9.2-2.5 0-3.5-.3-.9-.5-.1-.5 1.8zm-77.1-.4c0 1.1.3 1.4.6.6.3-.7.2-1.6-.1-1.9-.3-.4-.6.2-.5 1.3zm73.1 1.4c0 1.9.2 2.7.5 1.7.2-.9.2-2.5 0-3.5-.3-.9-.5-.1-.5 1.8zm13.7-.3-2.4 2.8 2.8-2.4c1.5-1.4 2.7-2.6 2.7-2.8 0-.8-.8-.1-3.1 2.4zm-18 0c-1.3 1.6-1.2 1.7.4.4 1.6-1.3 2.1-2.1 1.3-2.1-.2 0-1 .8-1.7 1.7zm97.4 0c2.6.2 6.8.2 9.5 0 2.6-.2.4-.3-4.8-.3s-7.4.1-4.7.3zm-485.3.7c0 .3.9 1 2 1.6 1.1.6 2 .8 2 .6 0-.3-.9-1-2-1.6-1.1-.6-2-.8-2-.6zm38.8 1.3c1.2.2 3 .2 4 0 .9-.3-.1-.5-2.3-.4-2.2 0-3 .2-1.7.4zm574.6 2.5-1.9 2.3 2.3-1.9c1.2-1.1 2.2-2.1 2.2-2.3 0-.8-.8-.2-2.6 1.9zm10 2-2.9 3.3 3.3-2.9c1.7-1.7 3.2-3.1 3.2-3.3 0-.8-.8-.1-3.6 2.9zm-537.9.8c1 1.1 2 2 2.3 2 .3 0-.3-.9-1.3-2s-2-2-2.3-2c-.3 0 .3.9 1.3 2zm-63.7 1.7c.7.3 1.6.2 1.9-.1.4-.3-.2-.6-1.3-.5-1.1 0-1.4.3-.6.6zm28 0c.7.3 1.6.2 1.9-.1.4-.3-.2-.6-1.3-.5-1.1 0-1.4.3-.6.6zm-20 1c1.2.2 3.2.2 4.5 0 1.2-.2.2-.4-2.3-.4s-3.5.2-2.2.4zm12.5 0c.9.2 2.3.2 3 0 .6-.3-.1-.5-1.8-.5-1.6 0-2.2.2-1.2.5zm563.6 1c-1.3 1.6-1.2 1.7.4.4.9-.7 1.7-1.5 1.7-1.7 0-.8-.8-.3-2.1 1.3zm-514.9.7c0 .2.8 1 1.8 1.7 1.5 1.3 1.6 1.2.3-.4s-2.1-2.1-2.1-1.3zm523.4 2.8-1.9 2.3 2.3-1.9c1.2-1.1 2.2-2.1 2.2-2.3 0-.8-.8-.2-2.6 1.9zM158.5 726c1 1.1 2 2 2.3 2 .3 0-.3-.9-1.3-2s-2-2-2.3-2c-.3 0 .3.9 1.3 2zm-90.1 3.4c1.1.9 2.4 1.6 3 1.6 1.2 0 .7-.5-2.4-1.9-2.4-1.1-2.4-1.1-.6.3zm614.5.3c-1.3 1.6-1.2 1.7.4.4.9-.7 1.7-1.5 1.7-1.7 0-.8-.8-.3-2.1 1.3zm-587.1 0c.7.3 1.6.2 1.9-.1.4-.3-.2-.6-1.3-.5-1.1 0-1.4.3-.6.6zm18 0c.7.3 1.6.2 1.9-.1.4-.3-.2-.6-1.3-.5-1.1 0-1.4.3-.6.6zm50.7 1.3c1 1.1 2 2 2.3 2 .3 0-.3-.9-1.3-2s-2-2-2.3-2c-.3 0 .3.9 1.3 2zm11.5-1.6c0 .2.8 1 1.8 1.7 1.5 1.3 1.6 1.2.3-.4s-2.1-2.1-2.1-1.3zm501.9 4.3c-1.3 1.6-1.2 1.7.4.4.9-.7 1.7-1.5 1.7-1.7 0-.8-.8-.3-2.1 1.3zm-508.9.7c0 .2.8 1 1.8 1.7 1.5 1.3 1.6 1.2.3-.4s-2.1-2.1-2.1-1.3zm-47.2 2.3c.7.3 1.6.2 1.9-.1.4-.3-.2-.6-1.3-.5-1.1 0-1.4.3-.6.6zm-26.5 1c.9.2 2.3.2 3 0 .6-.3-.1-.5-1.8-.5-1.6 0-2.2.2-1.2.5zm19 0c.9.2 2.3.2 3 0 .6-.3-.1-.5-1.8-.5-1.6 0-2.2.2-1.2.5zm58.7-.3c0 .2.8 1 1.8 1.7 1.5 1.3 1.6 1.2.3-.4s-2.1-2.1-2.1-1.3zm495.9 3.3c-1.3 1.6-1.2 1.7.4.4 1.6-1.3 2.1-2.1 1.3-2.1-.2 0-1 .8-1.7 1.7zm-491.9-.3c0 .2.8 1 1.8 1.7 1.5 1.3 1.6 1.2.3-.4s-2.1-2.1-2.1-1.3zm487.9 3.3c-1.3 1.6-1.2 1.7.4.4.9-.7 1.7-1.5 1.7-1.7 0-.8-.8-.3-2.1 1.3zm-483.9-.3c0 .2.8 1 1.8 1.7 1.5 1.3 1.6 1.2.3-.4s-2.1-2.1-2.1-1.3zm289.1 11.2c0 1.1.3 1.4.6.6.3-.7.2-1.6-.1-1.9-.3-.4-.6.2-.5 1.3zm-7.2 19.1c-1.3 1.6-1.2 1.7.4.4 1.6-1.3 2.1-2.1 1.3-2.1-.2 0-1 .8-1.7 1.7zm58.9 3c.7.3 1.6.2 1.9-.1.4-.3-.2-.6-1.3-.5-1.1 0-1.4.3-.6.6zm20.2 5.7c0 .2.8 1 1.8 1.7 1.5 1.3 1.6 1.2.3-.4s-2.1-2.1-2.1-1.3zm-41.7 19.1c0 2.2.2 3 .4 1.7.2-1.2.2-3 0-4-.3-.9-.5.1-.4 2.3zm-124.5 11.2c.7.3 1.6.2 1.9-.1.4-.3-.2-.6-1.3-.5-1.1 0-1.4.3-.6.6zm95 0c.7.3 1.6.2 1.9-.1.4-.3-.2-.6-1.3-.5-1.1 0-1.4.3-.6.6zm-138 1c.7.3 1.6.2 1.9-.1.4-.3-.2-.6-1.3-.5-1.1 0-1.4.3-.6.6zm52 0c.7.3 1.6.2 1.9-.1.4-.3-.2-.6-1.3-.5-1.1 0-1.4.3-.6.6zm76 0c.7.3 1.6.2 1.9-.1.4-.3-.2-.6-1.3-.5-1.1 0-1.4.3-.6.6zm51 0c.7.3 1.6.2 1.9-.1.4-.3-.2-.6-1.3-.5-1.1 0-1.4.3-.6.6zm-174 1c.7.3 1.6.2 1.9-.1.4-.3-.2-.6-1.3-.5-1.1 0-1.4.3-.6.6zm60 0c.6.2 1.8.2 2.5 0 .6-.3.1-.5-1.3-.5-1.4 0-1.9.2-1.2.5zm51.5 0c.9.2 2.5.2 3.5 0 .9-.3.1-.5-1.8-.5-1.9 0-2.7.2-1.7.5zm57.5 0c.7.3 1.6.2 1.9-.1.4-.3-.2-.6-1.3-.5-1.1 0-1.4.3-.6.6zm-164 1c.7.3 1.6.2 1.9-.1.4-.3-.2-.6-1.3-.5-1.1 0-1.4.3-.6.6zm81 0c2.3.2 5.9.2 8 0 2-.2.1-.4-4.3-.4-4.4 0-6.1.2-3.7.4zm78 0c.7.3 1.6.2 1.9-.1.4-.3-.2-.6-1.3-.5-1.1 0-1.4.3-.6.6zm-5 1c.7.3 1.6.2 1.9-.1.4-.3-.2-.6-1.3-.5-1.1 0-1.4.3-.6.6zm-143 1c.7.3 1.6.2 1.9-.1.4-.3-.2-.6-1.3-.5-1.1 0-1.4.3-.6.6zm137 0c.6.2 1.8.2 2.5 0 .6-.3.1-.5-1.3-.5-1.4 0-1.9.2-1.2.5zm-131 1c.7.3 1.6.2 1.9-.1.4-.3-.2-.6-1.3-.5-1.1 0-1.4.3-.6.6zm125 0c.7.3 1.6.2 1.9-.1.4-.3-.2-.6-1.3-.5-1.1 0-1.4.3-.6.6zm-119 1c.7.3 1.6.2 1.9-.1.4-.3-.2-.6-1.3-.5-1.1 0-1.4.3-.6.6zm113 0c.7.3 1.6.2 1.9-.1.4-.3-.2-.6-1.3-.5-1.1 0-1.4.3-.6.6zm-105.5 1c.9.2 2.3.2 3 0 .6-.3-.1-.5-1.8-.5-1.6 0-2.2.2-1.2.5zm97 0c.9.2 2.3.2 3 0 .6-.3-.1-.5-1.8-.5-1.6 0-2.2.2-1.2.5zm-87.5 1c.6.2 1.8.2 2.5 0 .6-.3.1-.5-1.3-.5-1.4 0-1.9.2-1.2.5zm77.5 0c.9.2 2.3.2 3 0 .6-.3-.1-.5-1.8-.5-1.6 0-2.2.2-1.2.5zm-65.5 1c1.2.2 3.2.2 4.5 0 1.2-.2.2-.4-2.3-.4s-3.5.2-2.2.4zm52 0c1.2.2 3 .2 4 0 .9-.3-.1-.5-2.3-.4-2.2 0-3 .2-1.7.4zm-25.5 1c1.5.2 3.7.2 5 0 1.2-.2 0-.4-2.8-.4-2.7 0-3.8.2-2.2.4z" fill="#0C0"/><path d="M405.8 823.7c.6.2 1.8.2 2.5 0 .6-.3.1-.5-1.3-.5-1.4 0-1.9.2-1.2.5zm32 0c.7.3 1.6.2 1.9-.1.4-.3-.2-.6-1.3-.5-1.1 0-1.4.3-.6.6z" fill="#030"/><path d="M780 154.9c0 .6.4 1.3 1 1.6.6.3.7-.1.4-.9-.7-1.8-1.4-2.1-1.4-.7zM55.9 593.7c-1.3 1.6-1.2 1.7.4.4.9-.7 1.7-1.5 1.7-1.7 0-.8-.8-.3-2.1 1.3zM36.2 644c0 1.4.2 1.9.5 1.2.2-.6.2-1.8 0-2.5-.3-.6-.5-.1-.5 1.3zm100.3 51c2.1 2.2 4.1 4 4.4 4 .3 0-1.3-1.8-3.4-4-2.1-2.2-4.1-4-4.4-4-.3 0 1.3 1.8 3.4 4zm-79 2c1 1.1 2 2 2.3 2 .3 0-.3-.9-1.3-2s-2-2-2.3-2c-.3 0 .3.9 1.3 2zM45 712.4c0 .2.8 1 1.8 1.7 1.5 1.3 1.6 1.2.3-.4s-2.1-2.1-2.1-1.3zm55.8 25.3c.7.3 1.6.2 1.9-.1.4-.3-.2-.6-1.3-.5-1.1 0-1.4.3-.6.6z" fill="#0C6"/><g fill="#0C9" stroke-width="0"><path d="M385.5 9.5C353.3 12.4 327 18 293 29.2c-32.6 10.7-64.5 26-90.8 43.6l-8.2 5.5-6.8-3.1c-14.2-6.6-29.5-6.4-43.5.5-5.6 2.8-9.4 5.8-17.2 13.7-10.8 10.8-15 17.6-18 29.1-1.9 7.5-1.9 20.3 0 27.5.8 3 1.5 6.2 1.5 7 0 .8-3.4 5.8-7.5 11-46.6 58.9-75.1 128.7-84.7 207.5-1.8 14.7-1.8 69.8 0 86 4.3 39 14.5 79.2 28.6 112.9 2.5 6 4.6 11.5 4.6 12.2 0 .8-2 3.2-4.5 5.5-16.3 15-26.5 39.1-26.5 62.5 0 22.7 8 43 23.4 59.1 19.7 20.9 44.9 30.3 72.5 27.2 11.8-1.3 20.3-3.9 31.3-9.6l8.8-4.5 5.7 4.9c18 15.5 46.2 34.5 69.3 46.8 47.7 25.3 94.3 39.8 148.4 46.2 17.7 2.1 64.5 2.4 82.6.5 17.2-1.8 44.8-6.6 61.4-10.8 48-12.1 95.6-34.2 136.3-63.4 26.3-18.8 57.4-47.7 77.5-72 51.1-61.9 81.9-134.5 91.4-215.5 2.4-20.4 2.5-64.9.1-86-6.5-57.9-23.7-111.7-50.6-158.4-3.9-6.9-7.1-13-7.1-13.6 0-.6 1.9-2.9 4.1-5 5.3-5.1 10-12.3 12.9-20 3.3-8.5 3.4-24.1.1-33.5-6-17.5-20.9-30.8-39-35-11.8-2.8-28.1.4-38.8 7.5-2.9 1.9-5.7 3.5-6.3 3.5-.6 0-5.9-4.3-11.8-9.6C628.1 52.1 545.4 16.8 457 9c-15.4-1.3-54.2-1.1-71.5.5zm64 6.5c78 5.3 150.5 32 213 78.7 13.6 10.1 24.9 19.6 34.7 29.1l6.7 6.5 4.8-4.3c13.4-11.9 32.7-14.7 48.8-7 11.8 5.7 22.5 20.1 24.1 32.9.8 6.4-1 6.5-2.1.1-1.5-8.8-11.1-19.3-22.1-24.1-13.1-5.8-32.5-1.9-42.3 8.5l-2.3 2.5 8.2 9.3C779.3 214 812.3 289 821.5 376.5c2.1 19.9 2.1 57.1.1 77.7-8.7 85.7-42.5 162.8-99.6 227.3-34.4 38.7-80.4 73.3-126.6 95.1-9.6 4.5-43.3 18.4-44.7 18.4-.3 0-1.9-2.4-3.6-5.4-6.8-12.1-20.1-16.3-32.6-10.2-8.7 4.3-13.5 12.3-13.5 22.5 0 6.9.8 6.4-13 8.5-31.6 5-67.6 6.3-98.5 3.7-57.7-5-115.7-23.2-166.5-52.4-19.3-11.1-43.3-28.1-58.9-41.6l-7.4-6.5-3.6 2.3c-6.6 4.1-19.7 10-25.7 11.6-3.2.9-11.3 1.9-17.9 2.2-12.8.6-20.5-.7-33.6-5.6-12.5-4.7-26.8-16.5-34.9-28.8-8.6-13-14-30.1-14-44.5 0-23 10.8-45.7 29.3-61.3l4.7-4.1-5.1-11.4c-6-13.3-17.6-47.8-21.3-63-8.3-34.3-11-62.4-10.3-104 .7-35 2.9-53.3 10.2-83.5 4.9-20.2 9.8-35.7 17.2-54.5 14.8-37.3 35.6-73.2 60.5-104.1l7.7-9.6-2.1-5.9c-2.3-6.6-3.7-19.4-2.1-19.4.6 0 1.3 1.7 1.7 3.8.3 2.1 2 6.6 3.7 10.1l3.1 6.2 10.8-11.4c52.2-54.9 124.4-96.2 198-113.2 18.3-4.2 36.8-7.1 53.5-8.5 7.2-.5 14.8-1.2 17-1.3 9.2-.8 32-.6 46 .3zM178.8 84c1.7.7 3.2 1.5 3.2 1.9 0 .4-6 5.5-13.3 11.3-7.4 5.8-19.8 16.8-27.6 24.4-11.1 10.7-14.5 13.5-15.2 12.3-1.6-2.5-2.2-7.9-1.7-16.4 1-18.4 11.7-30.3 31.3-34.5 5.1-1.2 19-.5 23.3 1zm577.3 51.1c6.5 2.8 14.2 11.2 16.4 17.9 2 6 2.2 14.9.5 20.7-1.4 4.7-7.8 13.6-10 14.1-.9.1-3.5-2.7-6.4-6.9-5.8-8.4-18.6-24.7-26.8-34-3.2-3.7-5.8-7.1-5.8-7.6 0-1.3 7-5.1 11.6-6.2 5.5-1.4 14.6-.5 20.5 2z"/><path d="M163.7 249.1c-12.4 1.9-21.9 14.7-20.2 27.3 1.1 8.8 6 15.7 14 19.9 5.5 3 16.4 2.9 22 0 12.6-6.6 17.3-20.9 11.1-33.7-5-10.3-14.9-15.3-26.9-13.5zm472.2 252.1c-12.3 7.1-9.7 25.1 4.2 28.8 11 3 21.8-8 18.9-19.1-2.8-10.4-13.9-15.1-23.1-9.7zm-580.7 94c-12.5 14.5-18.2 30-18.2 49.2 0 13.9 1.8 21.5 7.7 33.6 4 8 6.1 10.9 13.8 18.5 15.4 15.4 29 21.4 50 22.2 14.6.6 23.4-1.1 34.7-6.4l7.9-3.6-10.8-10.6c-27.2-26.6-50.4-57.9-70.3-94.9-4.5-8.3-8.3-15.2-8.4-15.2-.1 0-3 3.2-6.4 7.2zm13.3 20.5c16.9 29.9 36.9 56.8 60.3 81.4 4.6 4.9 8.1 9.2 7.8 9.8-1.3 2.1-15.3 4.6-26.1 4.6-9.4 0-12.3-.4-19.8-2.9-20.5-6.7-36.7-22.7-43.4-43-2.3-7.1-2.7-9.7-2.7-21.1 0-11.7.3-13.8 2.8-21C50.3 615 57.7 602 59.6 602c.6 0 4.7 6.2 8.9 13.7zm189.2-5.7c-11.2 2.9-20.5 11.2-23.3 20.8-6.1 20.9 11.5 37.6 32.2 30.5 8.1-2.8 19.8-16.3 18-20.9-.8-2.1-2.3-.9-4.7 3.7-8.4 16.6-31.2 20-40 6-2.4-3.8-2.9-5.6-2.9-11 0-14.4 9.4-23.5 26.5-25.7 7.1-.9 20.4 1.7 40.1 7.7 9.3 2.9 20.4 6.1 24.6 7.1l7.7 2-1.9 3.8c-3.2 6.2-4 11.5-5 31.9-1 21.5-2.3 27.3-7.2 34.7-5 7.3-10.8 9.9-22.3 9.9s-18-2.8-24.6-10.4c-6.4-7.4-9.6-6.6-4.3 1.1 3.8 5.4 13.2 11.4 20.1 12.8 8.7 1.8 18 .8 24.3-2.6 13.2-7.2 17.9-19.5 18-47.9 0-12.9 1.8-23.8 4.7-28.8l1.8-3.1 14-.1c15.1-.1 19.4-1.1 26.8-6.2 4.4-3 5.9-5.3 4.8-7.2-.6-1-1.7-.5-4.4 1.9-2 1.8-5.9 4-8.6 5.1-5.8 2.1-19.1 3.5-24.7 2.4l-3.9-.7 3.8-3.5c2.4-2.1 3.6-4 3.3-4.9-.7-1.9-3.2-.6-8.8 4.4l-4 3.6-6.1-1.3c-3.4-.7-12.7-3.3-20.7-5.8s-18.3-5.6-23-6.9c-9.5-2.7-24.4-3.9-30.3-2.4zm257.5 2.6c-15 4-23.2 13-23.2 25.4 0 17.9 18.8 26.9 36.9 17.7 4.5-2.2 7.1-5 5.9-6.3-.4-.3-3.5.8-6.9 2.5-11.1 5.5-25 3.6-29.8-4.2-4.9-8-3.5-16.7 3.8-23.7 10.1-9.8 22.4-10.7 57.1-4.1 11.8 2.3 27 4.9 33.8 5.8 9.7 1.3 12 1.9 11 2.8-.7.7-11.2 9-23.3 18.5-53.1 41.7-73.5 59.4-73.5 63.6 0 1.4.6 2.7 1.4 3 .8.3 6.3-.2 12.3-1 26.7-3.9 52.8-4.2 77.8-1 8.5 1.1 11.1 1.1 11.7.1 1.3-2.1-.9-3-9.9-4.3-22-3.2-56.2-2.7-79.6 1-4.5.8-8.4 1.2-8.7.9-1.3-1.3 36.3-32.6 81.5-67.8 10.5-8.1 19.1-15.5 19.3-16.5.3-1.6-.8-1.9-9-2.5-8.6-.6-21.7-2.7-57.3-9-15.8-2.8-23.6-3-31.3-.9z"/><path d="M355.5 655.4c-3.5 5.3 3.4 11.5 7.9 7 1.9-1.8 2.1-6.5.4-8.2-2.1-2.1-6.6-1.4-8.3 1.2zm7 3.1c0 3.1-4.9 2.8-5.3-.3-.3-2 0-2.3 2.5-2 2 .2 2.8.8 2.8 2.3zm-5.1 19.7c-1.4 2.2-1.7 23.2-.5 27.1 1.6 4.8 6.3 8.7 10.4 8.7 6.7 0 14.9-8.6 20.8-21.7 3.2-7 5.5-10.3 7.2-10.3.7 0 .8 5 .3 14.4-.5 11.7-.4 14.5.7 15.5 2.5 2 4.5.1 9.7-9.6 5.7-10.5 11.2-17.3 14.1-17.3 2.2 0 2.3.5 2 12-.2 10 1.7 14.3 6.8 15.5 4.2.9 11.2-3.2 14.9-8.7l2.7-4.1.8 4.1c1 5 4.6 8.2 9.3 8.2 2.5 0 4.5-1 7.5-3.8l4.2-3.7-.7 7.4c-.6 6.2-1.3 8.2-4.6 13-9.5 13.9-16.3 33.6-14.6 42.5 1.6 8.6 9.1 11.3 15.1 5.3 5.3-5.3 6.7-11.4 7.2-33.2l.5-18.9 8.8-9.8c12-13.3 16.2-20.9 11.7-20.8-.7 0-2.7 2.7-4.5 5.9-3.5 6-14.7 18-15.8 16.9-.3-.4-.1-5.5.5-11.4 1.5-14.5 1.4-17.4-.3-17.4-.9 0-1.8 1.9-2.5 5.2-1.4 6.5-4.6 13.6-7.3 16.5-2.4 2.6-6.5 3-9.4.9-2.8-2.1-2.5-13.2.5-20.3 2.2-4.9 2.1-8.1 0-6.7-.5.3-2.9 4.7-5.3 9.9-5.4 11.5-11.4 18.5-16 18.5-5 0-5.6-1.3-5.6-12.5 0-11.7-1.2-14.5-6.2-14.5-4.1 0-8.2 4.4-14.9 16-2.8 4.9-5.4 9-5.6 9-.2 0-.1-5.5.2-12.3.7-11.4.6-12.4-1.3-14.7-2-2.4-2.2-2.4-4.9-1-2 1.1-4.3 4.5-7.8 11.6-2.7 5.5-6.5 11.8-8.2 14.1-5.5 6.9-11.9 8.1-15.7 3-1.9-2.5-2.1-3.9-1.8-13.5.2-5.9.4-11.8.5-13.1.2-2.7-1.7-3.9-2.9-1.9zM467 740.7c0 19.8-2.7 29.4-8.6 30.9-5.8 1.5-8-5.8-5.3-17.4 1.3-5.5 11.6-27.2 13-27.2.5 0 .9 6 .9 13.7z"/></g><path d="M823.1 415.6c0 1.1.3 1.4.6.6.3-.7.2-1.6-.1-1.9-.3-.4-.6.2-.5 1.3zM714.4 700.2l-1.9 2.3 2.3-1.9c2.1-1.8 2.7-2.6 1.9-2.6-.2 0-1.2 1-2.3 2.2zm-8.4 8.3c-2.4 2.5-4.2 4.5-3.9 4.5.3 0 2.5-2 4.9-4.5 2.4-2.5 4.2-4.5 3.9-4.5-.3 0-2.5 2-4.9 4.5zm-664 .9c0 .2.8 1 1.8 1.7 1.5 1.3 1.6 1.2.3-.4s-2.1-2.1-2.1-1.3zm70.3 10.3c.9.2 2.3.2 3 0 .6-.3-.1-.5-1.8-.5-1.6 0-2.2.2-1.2.5z" fill="#0C3"/><path d="M472.2 296.7c29.1.2 76.5.2 105.5 0 29.1-.1 5.3-.2-52.7-.2s-81.8.1-52.8.2zM398 335.2c0 .5 34.8.7 77.3.6 42.4-.2 64.8-.4 49.7-.5-71.7-.7-127-.7-127-.1zm82 19.5c0 .5 6.9.7 15.2.5 27.9-.4 30.6-.8 7.6-1-12.6-.1-22.8.1-22.8.5zM284 496.2c0 .5 36.8.7 81.8.6 44.9-.2 68.7-.4 52.7-.5-75.7-.7-134.5-.7-134.5-.1zm258.3.5c3.7.2 9.7.2 13.5 0 3.7-.2.6-.3-6.8-.3-7.4 0-10.5.1-6.7.3zm-120.7 79.5c.3.5 1 .6 1.5.3 1.3-.9 1.1-1.2-.6-1.2-.8 0-1.2.4-.9.9z" fill="#0F0"/><g fill="#0FF" stroke-width="0"><path d="M416.4 187.7c-3 5.4-26.2 45.7-51.5 89.5-25.2 43.9-46 80.2-46.1 80.7-.2.5 4.7 9.5 10.7 19.9 8.2 14.2 11.3 18.8 12.1 17.9.6-.7 17.9-30.5 38.4-66.2 20.5-35.8 38.5-67 40-69.4l2.8-4.4 6.4 10.9 6.5 10.9 22.6.3 22.6.2-13.6-23.2c-7.4-12.8-17.4-30.1-22.1-38.3-14.7-25.6-22.3-38.5-22.7-38.5-.3 0-3 4.4-6.1 9.7z"/><path d="M217.5 300c.9 1.6 3 5.4 4.7 8.2 1.7 2.9 24.2 42 50 86.8s47.3 81.8 47.7 82.3c.4.4 10.7.6 22.8.5l22.1-.3-40.4-70c-22.2-38.4-40.4-70.3-40.4-70.7 0-.4 5.7-.9 12.6-1l12.6-.3 7-12c3.8-6.6 8.8-15.2 11-19.2l4-7.3H215.9l1.6 3zm192.1 15.5c-5.8 10.2-10.6 18.8-10.6 19 0 .3 34.4.5 76.4.5 72.7 0 85.6.3 85.6 2 0 .4-2.5 5-5.5 10.1-3 5.2-5.5 10.1-5.5 10.9 0 .8 4.9 9.9 10.9 20.2l10.8 18.8 13.4-23.3c7.3-12.7 20.2-35.1 28.6-49.6 8.4-14.5 15.3-26.6 15.3-26.8 0-.2-47-.3-104.4-.3H420.3l-10.7 18.5z"/><path d="M481 355.7c.1.5 18.2 32.3 40.4 70.8l40.4 70-13.2.3-13.1.3-10.5 18.5c-5.8 10.2-10.6 19-10.8 19.5-.2.5 22.1.9 57.3.9 50 0 57.6-.2 57.2-1.5-.3-.8-17.2-30.1-37.5-65.2-20.2-35.1-43.3-75.1-51.3-89l-14.4-25.2-22.2-.1c-12.3 0-22.3.3-22.3.7zM248 480.2c-14 24.3-27 46.8-28.8 50l-3.3 5.8h208.9l11.1-19.3 11-19.2-81.5-.3c-44.8-.1-81.4-.4-81.4-.7 0-.2 2.8-5.4 6.1-11.5l6.1-11-6.8-11.8c-3.7-6.4-8.6-15-10.8-18.9-2.3-4-4.3-7.3-4.6-7.3-.3 0-12 19.9-26 44.2z"/><path d="M464 506.2c-22.1 38.1-40.6 69.7-41 70.1-.4.5-3.6-4.1-7.1-10.2l-6.3-11.1h-22.3c-12.3 0-22.3.2-22.3.4 0 .4 56.9 98.7 57.5 99.4.6.7 104.7-179.8 104.3-180.8-1.1-2.6-21.4-37-21.9-37-.4 0-18.8 31.2-40.9 69.2z"/></g></svg>