<svg version="1.0" xmlns="http://www.w3.org/2000/svg" viewBox="0 0 851 835"><path d="M393 8c-68.9 5.5-137.9 28.8-191.3 64.6l-7.9 5.2-5.1-2.5c-14.6-7.4-31.3-7.2-46.2.5-8.5 4.4-23.7 19-28.3 27.2-7.4 13.4-9.8 31.1-5.8 44.3l1.7 5.9-4.3 5.4c-51.1 64.9-79.7 134.6-89 217.4-1.9 17.1-1.6 64.8.6 83.5 4.6 39.5 14.5 78.3 29 112.8l4.4 10.5-4.5 4.3c-10.3 10-18.4 23-22.7 36.4-4.8 14.9-5.7 27-3.1 41.8 6 34.4 29.2 60.2 63.2 70.3 7.3 2.1 11 2.6 21.3 2.7 17.6.2 32.4-3.6 46.3-11.7l4.5-2.7 6.4 5.4c23.7 20.1 56.4 41 85.5 54.9 41.9 19.9 85.5 32.2 134.8 38 16.8 2 66.4 1.7 85-.5 38.7-4.6 71.9-13 107-26.9 85.8-34 158.9-98 205-179.3 47.6-83.8 63.5-183.9 44.4-280-8.5-42.8-24.1-84.7-45.5-122.1-3.5-6.2-6.4-11.4-6.4-11.6 0-.2 2.5-3 5.6-6.3 13.6-14.6 17.8-35.3 11-53.9-11.6-32.2-50.6-45.4-78.7-26.7l-5.7 3.8-11.8-10.5c-53.1-46.8-117.2-78.5-188.3-93.3-21.9-4.6-45.5-6.9-73.1-7.4-14.6-.2-31.7 0-38 .5zm73 10.5c57.3 6.6 106.2 22.4 154.9 50 26.8 15.3 48.5 31.1 73.3 53.8l9.7 8.8 5.6-4.6c9.9-8 17-10.6 28.9-10.6 16.4 0 31.7 9.4 38.7 23.7 2.8 6 2 6.4-1.9.9-8.3-11.8-25.4-18.4-39.8-15.5-7.3 1.5-16.1 6-20.4 10.5l-3.3 3.4 5.9 6.7c48.2 54.3 78.2 110.5 93.9 175.7 7.9 32.7 11 59.9 10.9 96.2 0 26.8-1.3 41.9-5.5 66.5-14.6 84.6-59 166.2-121.9 223.8-40.4 37-84.3 64-134.4 82.7-9.9 3.7-11.5 3.6-11.6-.1 0-2.6-8.2-10.2-13.2-12.4-4.3-1.8-6.5-2.1-11.9-1.8-14.4 1.1-23.9 11.5-23.9 26.3v5.3l-13.7 2.1c-25.1 3.8-35.4 4.6-62.8 4.5-46.1-.1-82.7-5.9-125-19.8-49.4-16.3-97.5-43.5-135.1-76.3-3.4-2.9-6.7-5.3-7.3-5.3-.7 0-2.7 1.1-4.5 2.5-5.2 3.9-20 10.5-27.4 12-3.7.8-11.9 1.5-18.3 1.5-9.6 0-13.3-.5-20.5-2.6-26.5-7.6-46.2-27.3-53.8-53.6-9-31 1.1-62.8 26.3-83.3 1.3-1.1-.4 1.4-3.8 5.5-6.6 7.8-12.7 19.3-15.8 29.5-2.5 8.3-2.5 30.3 0 39.5 6.8 25.1 25.3 44.4 50.7 53 8.2 2.8 26.6 3.8 36.5 2.1 7.4-1.3 20.5-6 24.4-8.7l2.3-1.7-12.4-12.6c-15.5-15.6-24.5-26-35.2-40.4-44.4-59.7-70.2-125.4-78.2-199-2.1-18.6-2.4-61-.6-78.2 8.4-79.5 37.1-150.3 86-212.2l8.9-11.2-2.3-6.8c-1.3-3.7-2.3-8.8-2.3-11.3v-4.5l1.9 5.3c1.7 4.8 5.7 12.2 6.5 12.2.2 0 5.7-5.5 12.2-12.1C215.1 57.4 319.5 14.3 430.5 16.5c12.1.3 28.1 1.2 35.5 2zM176.6 84.1c2.4.6 4.4 1.5 4.4 2 0 .4-2.8 2.9-6.2 5.5-10.8 8.2-22.8 18.7-35.6 30.9-6.7 6.5-12.5 11.5-12.8 11.2-1.6-1.6-2.6-13.9-1.5-19.8 2.1-12.2 7.9-20.7 17.2-25.5 10.1-5 24.3-6.8 34.5-4.3zm577.6 51.5c6.4 2.1 13.1 8.3 16.5 15.2 2.2 4.6 2.8 7 2.8 13.2 0 8.3-2 13.7-7.5 20l-3 3.5-2.3-2.9c-1.2-1.6-6.1-8.1-10.9-14.5-4.7-6.4-11.7-15.1-15.5-19.5-10.4-11.9-10-11-5.9-13.5 6.7-4.2 16.1-4.8 25.8-1.5zM65.9 612.7c16.2 29.6 37.9 59.3 60.2 82.8 7.6 7.8 9.9 10.9 8.9 11.5-3.7 2.3-18.2 4.3-27.7 3.8-16.9-.9-30.2-6.9-42.9-19.4-5.6-5.5-8.1-9-11.8-16.5-11.2-22.7-10-46 3.6-67.2 1.6-2.6 3.3-4.7 3.7-4.7.3 0 3 4.4 6 9.7z"/><path d="M417.8 184.7c-2.4 4.3-25.9 45-52.1 90.6-26.2 45.5-47.7 82.9-47.7 83.1 0 .2 4.6 8.4 10.3 18.2 5.7 9.9 10.8 18.7 11.4 19.8.8 1.5 5.6-6.1 29.8-48 47.9-83 52.8-91.3 53.5-90.9.4.2 3.3 4.9 6.5 10.5l5.9 10h45.7l-1.2-2.3c-.7-1.2-11.8-20.4-24.7-42.7-13-22.3-25.6-44-28-48.3-2.4-4.2-4.5-7.7-4.7-7.7-.2 0-2.3 3.5-4.7 7.7zm-258.1 64.8c-18 6.6-22.5 30.8-8.2 43.4 5.3 4.6 9.4 6.1 17 6.1 15.5 0 26.5-11.9 25.3-27.3-.6-7.5-2.5-11.4-7.9-16.7-6.7-6.4-17.4-8.7-26.2-5.5z"/><path d="M216.3 297.3c-.2.4 20.4 36.8 45.8 81 25.5 44.1 48.8 84.6 51.8 89.9l5.6 9.8h22.8c12.5 0 22.7-.2 22.7-.4 0-.5-13.9-24.9-53.9-94.1l-27.2-47 12.8-.3 12.8-.3 9.7-16.7c5.3-9.2 10.3-18.2 11.2-20l1.7-3.3-57.6.3c-31.8.2-57.9.6-58.2 1.1zm192.9 18.1c-6.1 10.6-11.2 19.6-11.2 20 0 .3 36.7.7 81.5.8l81.4.3-6.1 10.8-6 10.8 10.9 19c6.1 10.5 11.4 19.1 11.9 19.1.7.1 58.4-98.5 58.4-99.8 0-.2-47.1-.4-104.8-.4H420.5l-11.3 19.4z"/><path d="M480.3 355.2c.2.7 18.5 32.6 40.5 70.8l40 69.5-12.6.5-12.6.5-11.2 19.5-11.1 19.5 28.8.3c15.8.1 42.1.1 58.3 0l29.6-.3-52.3-90.5-52.3-90.5-22.8-.3c-18.1-.2-22.7 0-22.3 1zM258.2 461.7c-25.6 44.1-42.2 73.1-42.2 73.7 0 .3 47.1.6 104.8.6l104.7-.1 11.3-19.7 11.2-19.7-81.5-.3c-44.8-.1-81.5-.4-81.5-.7 0-.3 2.5-5 5.6-10.5 3.3-5.8 5.4-10.8 5.1-11.9-.7-2.8-20.9-37.1-21.8-37.1-.4 0-7.5 11.6-15.7 25.7z"/><path d="M464.6 504.4c-21.9 37.6-40.3 69.2-41 70.1-1.1 1.6-2 .6-7.2-8.6l-6-10.4-23.2-.3-23.2-.2 6.6 11.2c3.7 6.2 16.8 28.8 29.1 50.3 12.4 21.4 22.7 39.1 22.8 39.3.1.2 8-13.1 17.6-29.5 26.2-45.2 87-150.7 87.2-151.4.3-.9-21.7-38.9-22.4-38.9-.4 0-18.5 30.8-40.3 68.4zm171.7-4.3c-10 4.9-12.2 17.7-4.5 25.8 6.9 7.3 16.4 7.6 23.6.8 6.4-6.1 6.8-15.7.9-22.8-5.1-6-12.7-7.5-20-3.8zM255.5 610.4c-16.3 5.2-25.3 18.7-22.4 33.9 3.5 19.1 29.1 25.5 43.7 10.9 4.9-4.9 9.6-12.7 8.8-14.7-1.1-2.9-3.4-1.5-6.4 3.9-3.9 6.8-9.3 11.2-16 13.2-9 2.7-18.1-.5-22.9-7.8-2.4-3.5-2.8-5.2-2.8-10.7.1-19.3 18.8-29.2 44.2-23.6 4.3 1 16.4 4.3 26.8 7.5 10.5 3.1 20.7 6 22.8 6.4 2 .4 3.7.9 3.7 1.2 0 .3-.9 2.2-1.9 4.2-2.8 5.6-4 13.7-5 34.2-.7 14.7-1.3 19.6-3 24-4.6 12.2-12.3 17.4-25.6 17.4-10.9-.1-16.8-2.7-24-10.7-4.6-5.1-5.7-5.8-7-4.7-.8.7-1.5 1.6-1.5 2 0 2.3 10.7 12.2 15.8 14.7 7.3 3.6 21.7 4.5 28.7 1.9 10.7-4.1 17.3-12.4 19.9-25.1.8-3.9 1.8-14.4 2.1-23.5.7-17.7 1.5-23.2 4.5-29.5l1.9-4 12.1.3c14.9.4 23.7-1.8 30-7.5 6.8-6.1 4.7-9.4-2.5-3.8-7.1 5.4-20.5 8.3-30.9 6.7l-4.9-.7 3.6-2.8c3.7-2.8 5-6.7 2.3-6.7-1.5 0-7 4.2-9.7 7.4-1.4 1.7-2 1.7-7 .7-3-.6-13.9-3.8-24.4-7.1-10.4-3.2-22.3-6.6-26.3-7.5-8.7-1.8-21.1-1.9-26.7-.1zm259.2 1.6c-18.9 4.8-28.4 21.8-20.7 37.1 5.7 11 24.1 14.1 36.9 6.2 8.4-5.3 5.6-8.2-3.6-3.6-4.7 2.3-7.1 2.8-12.8 2.8-4.6-.1-8.1-.7-10.2-1.8-9.6-5.1-11.2-18.5-3.2-27.2 5.8-6.2 12.3-8.8 23.9-9.2 9.6-.4 11.3-.2 45.5 6.1 7.7 1.5 18.5 3.2 24 3.9l9.9 1.2-8.9 7c-21.1 16.3-68.8 55-78.2 63.4-10.1 9-12.8 13-10.4 15.4.8.8 4.6.7 14.9-.7 18.3-2.5 54.3-3.3 69.9-1.5 17.1 1.9 18.8 1.8 18.8-.6 0-1.7-1.1-2.2-8-3.3-14-2.2-51-2.6-67.5-.8-8 .8-16.3 1.9-18.5 2.2-3.8.7-3.9.6-2.5-1.1 4.2-5.1 59.1-50 88.8-72.5 6.2-4.8 11.2-9.2 11.2-10.2 0-1.3-1.3-1.8-6.7-2.2-13.2-1.2-30-3.8-47.8-7.3-19-3.7-37.6-5.1-44.8-3.3z"/><path d="M356.2 653.6c-4.5 3.1-1.9 10.4 3.7 10.4 5.5 0 8-6.1 4.1-10-2.4-2.4-4.8-2.5-7.8-.4zm.3 24.4c-.4.6-.7 6.8-.8 13.8-.2 13.9.6 16.9 5.6 20.6 8.4 6.2 18.2-1.2 28.2-21.3 6.3-12.6 7.2-11.5 5.7 6.1-1 11.2-1 13.4.2 14.6 3.1 3.2 6 .7 11.7-9.8 5.7-10.7 11-17.5 13.1-16.7.9.3 1.3 2.9 1.3 8.8.1 12.5.3 13.4 3.1 16.3 4.6 4.5 9.7 3.4 17.1-3.7l4.2-4 1.5 3.7c2.9 6.9 11.2 8.1 17.3 2.4l2.3-2.1v6c0 5.4-.4 6.5-3.6 10.7-4.7 6.1-11 18.5-13.4 26.5-3.5 11-2.2 23.7 2.5 25.5.9.3 3.3.6 5.2.6 4.5 0 9.3-4.8 11.2-11 2-6.8 3.2-22.6 2.5-33.6l-.6-10 8.7-9.5c12.8-13.6 17.6-21.9 12.6-21.9-1.2 0-2.9 1.6-4.5 4.4-3.2 5.4-13.5 17.6-14.9 17.6-1 0-.5-11.8 1-23.2.4-3.9.2-4.9-1.1-5.4-2.3-.9-2.4-.7-4.7 7.7-2.6 9.4-5.5 14.5-9 15.9-3.5 1.5-6.6 0-7.5-3.6-1-4 .2-12.8 2.5-18 1.4-3 1.8-5.1 1.2-5.7-1.5-1.5-4 0-5.2 3-7.8 19.3-15.8 28.2-21.9 24.3-1.2-.7-1.5-3.2-1.6-10.7 0-11.5-.7-14.1-4.1-15.4-4.2-1.6-8.3 1.2-14 9.9-2.8 4.2-5.9 9.2-6.8 11-.9 1.9-1.8 3.2-2 3-.2-.2 0-5 .6-10.6.8-8.3.7-10.8-.5-13.7-3.1-7.2-8.8-3.5-15.1 9.8-4.5 9.5-10.2 16.9-14.4 18.7-2.6 1.1-3.5 1-5.6-.4-4.1-2.7-4.8-5.9-4.1-19.4.7-11.7.6-12.2-1.3-12.2-1.1 0-2.3.5-2.6 1zM467 737.4c0 22.9-4.5 36.2-11.4 33.7-5.7-2.1-3.8-16.1 4.5-32.9 2.8-5.6 5.5-10.2 6-10.2s.9 4.2.9 9.4z"/></svg>